<?xml version="1.0" encoding="utf-8" standalone="no"?>
<!DOCTYPE svg PUBLIC "-//W3C//DTD SVG 1.1//EN"
  "http://www.w3.org/Graphics/SVG/1.1/DTD/svg11.dtd">
<svg xmlns:xlink="http://www.w3.org/1999/xlink" width="684pt" height="394.56pt" viewBox="0 0 684 394.56" xmlns="http://www.w3.org/2000/svg" version="1.1">
 <metadata>
  <rdf:RDF xmlns:dc="http://purl.org/dc/elements/1.1/" xmlns:cc="http://creativecommons.org/ns#" xmlns:rdf="http://www.w3.org/1999/02/22-rdf-syntax-ns#">
   <cc:Work>
    <dc:type rdf:resource="http://purl.org/dc/dcmitype/StillImage"/>
    <dc:date>2026-09-14T12:11:33.307519</dc:date>
    <dc:format>image/svg+xml</dc:format>
    <dc:creator>
     <cc:Agent>
      <dc:title>Matplotlib v3.11.2, https://matplotlib.org/</dc:title>
     </cc:Agent>
    </dc:creator>
   </cc:Work>
  </rdf:RDF>
 </metadata>
 <defs>
  <style type="text/css">*{stroke-linejoin: round; stroke-linecap: butt}</style>
 </defs>
 <g id="figure_1">
  <g id="patch_1">
   <path d="M 0 394.56 
L 684 394.56 
L 684 -0 
L 0 -0 
z
" style="fill: #ffffff"/>
  </g>
  <g id="axes_1">
   <g id="patch_2">
    <path d="M 124.38 178.9056 
L 224.82 178.9056 
Q 232.632 178.9056 232.632 171.144 
L 232.632 137.88 
Q 232.632 130.1184 224.82 130.1184 
L 124.38 130.1184 
Q 116.568 130.1184 116.568 137.88 
L 116.568 171.144 
Q 116.568 178.9056 124.38 178.9056 
z
" clip-path="url(#p8e04faa1ae)" style="fill: #ea580c; fill-opacity: 0.070588; stroke: #ea580c; stroke-width: 1.8; stroke-linejoin: miter"/>
   </g>
   <g id="patch_3">
    <path d="M 23.94 295.3296 
L 157.86 295.3296 
Q 165.672 295.3296 165.672 287.568 
L 165.672 248.76 
Q 165.672 240.9984 157.86 240.9984 
L 23.94 240.9984 
Q 16.128 240.9984 16.128 248.76 
L 16.128 287.568 
Q 16.128 295.3296 23.94 295.3296 
z
" clip-path="url(#p8e04faa1ae)" style="fill: #2563eb; fill-opacity: 0.070588; stroke: #2563eb; stroke-width: 1.8; stroke-linejoin: miter"/>
   </g>
   <g id="patch_4">
    <path d="M 191.34 295.3296 
L 325.26 295.3296 
Q 333.072 295.3296 333.072 287.568 
L 333.072 248.76 
Q 333.072 240.9984 325.26 240.9984 
L 191.34 240.9984 
Q 183.528 240.9984 183.528 248.76 
L 183.528 287.568 
Q 183.528 295.3296 191.34 295.3296 
z
" clip-path="url(#p8e04faa1ae)" style="fill: #0d9488; fill-opacity: 0.070588; stroke: #0d9488; stroke-width: 1.8; stroke-linejoin: miter"/>
   </g>
   <g id="patch_5">
    <path d="M 203.785675 178.220856 
Q 230.399839 209.951808 255.792586 240.226516 
" clip-path="url(#p8e04faa1ae)" style="fill: none; stroke: #64748b; stroke-width: 1.7; stroke-linecap: round"/>
    <path d="M 254.235354 233.701562 
L 255.792586 240.226516 
L 249.638284 237.55733 
z
" clip-path="url(#p8e04faa1ae)" style="fill: #64748b; stroke: #64748b; stroke-width: 1.7; stroke-linecap: round"/>
   </g>
   <g id="patch_6">
    <path d="M 145.414325 178.220856 
Q 118.800161 209.951808 93.407414 240.226516 
" clip-path="url(#p8e04faa1ae)" style="fill: none; stroke: #64748b; stroke-width: 1.7; stroke-linecap: round"/>
    <path d="M 99.561716 237.55733 
L 93.407414 240.226516 
L 94.964646 233.701562 
z
" clip-path="url(#p8e04faa1ae)" style="fill: #64748b; stroke: #64748b; stroke-width: 1.7; stroke-linecap: round"/>
   </g>
   <g id="patch_7">
    <path d="M 459.18 178.9056 
L 559.62 178.9056 
Q 567.432 178.9056 567.432 171.144 
L 567.432 137.88 
Q 567.432 130.1184 559.62 130.1184 
L 459.18 130.1184 
Q 451.368 130.1184 451.368 137.88 
L 451.368 171.144 
Q 451.368 178.9056 459.18 178.9056 
z
" clip-path="url(#p8e04faa1ae)" style="fill: #ea580c; fill-opacity: 0.070588; stroke: #ea580c; stroke-width: 1.8; stroke-linejoin: miter"/>
   </g>
   <g id="patch_8">
    <path d="M 358.74 295.3296 
L 492.66 295.3296 
Q 500.472 295.3296 500.472 287.568 
L 500.472 248.76 
Q 500.472 240.9984 492.66 240.9984 
L 358.74 240.9984 
Q 350.928 240.9984 350.928 248.76 
L 350.928 287.568 
Q 350.928 295.3296 358.74 295.3296 
z
" clip-path="url(#p8e04faa1ae)" style="fill: #2563eb; fill-opacity: 0.070588; stroke: #2563eb; stroke-width: 1.8; stroke-linejoin: miter"/>
   </g>
   <g id="patch_9">
    <path d="M 526.14 295.3296 
L 660.06 295.3296 
Q 667.872 295.3296 667.872 287.568 
L 667.872 248.76 
Q 667.872 240.9984 660.06 240.9984 
L 526.14 240.9984 
Q 518.328 240.9984 518.328 248.76 
L 518.328 287.568 
Q 518.328 295.3296 526.14 295.3296 
z
" clip-path="url(#p8e04faa1ae)" style="fill: #0d9488; fill-opacity: 0.070588; stroke: #0d9488; stroke-width: 1.8; stroke-linejoin: miter"/>
   </g>
   <g id="patch_10">
    <path d="M 538.585675 178.220856 
Q 565.199839 209.951808 590.592586 240.226516 
" clip-path="url(#p8e04faa1ae)" style="fill: none; stroke: #64748b; stroke-width: 1.7; stroke-linecap: round"/>
    <path d="M 589.035354 233.701562 
L 590.592586 240.226516 
L 584.438284 237.55733 
z
" clip-path="url(#p8e04faa1ae)" style="fill: #64748b; stroke: #64748b; stroke-width: 1.7; stroke-linecap: round"/>
   </g>
   <g id="text_1">
    <text style="font-weight: 700; font-size: 16px; font-family: 'DejaVu Sans'; text-anchor: middle; fill: #172554" x="174.6" y="104.616" transform="rotate(-0 174.6 104.616)">Observación</text>
   </g>
   <g id="text_2">
    <text style="font-size: 12px; font-family: 'DejaVu Sans'; text-anchor: middle; fill: #172554" x="174.6" y="157.629656" transform="rotate(-0 174.6 157.629656)">Z: calor</text>
   </g>
   <g id="text_3">
    <text style="font-size: 12px; font-family: 'DejaVu Sans'; fill: #172554" transform="translate(65.787187 264.079547)">X: venta</text>
    <text style="font-size: 12px; font-family: 'DejaVu Sans'; fill: #172554" transform="translate(58.048125 278.482828)">de helados</text>
   </g>
   <g id="text_4">
    <text style="font-size: 12px; font-family: 'DejaVu Sans'; fill: #172554" transform="translate(224.134688 264.079547)">Y: personas</text>
    <text style="font-size: 12px; font-family: 'DejaVu Sans'; fill: #172554" transform="translate(232.051875 278.482828)">nadando</text>
   </g>
   <g id="text_5">
    <text style="font-weight: 700; font-size: 16px; font-family: 'DejaVu Sans'; text-anchor: middle; fill: #172554" x="509.4" y="104.616" transform="rotate(-0 509.4 104.616)">Intervención en X</text>
   </g>
   <g id="text_6">
    <text style="font-size: 12px; font-family: 'DejaVu Sans'; text-anchor: middle; fill: #172554" x="509.4" y="157.629656" transform="rotate(-0 509.4 157.629656)">Z: calor</text>
   </g>
   <g id="text_7">
    <text style="font-size: 12px; font-family: 'DejaVu Sans'; fill: #172554" transform="translate(400.587187 264.079547)">X: venta</text>
    <text style="font-size: 12px; font-family: 'DejaVu Sans'; fill: #172554" transform="translate(392.848125 278.482828)">de helados</text>
   </g>
   <g id="text_8">
    <text style="font-size: 12px; font-family: 'DejaVu Sans'; fill: #172554" transform="translate(558.934687 264.079547)">Y: personas</text>
    <text style="font-size: 12px; font-family: 'DejaVu Sans'; fill: #172554" transform="translate(566.851875 278.482828)">nadando</text>
   </g>
   <g id="text_9">
    <text style="font-size: 10px; font-family: 'DejaVu Sans'; fill: #2563eb" transform="translate(389.073281 200.722047)">X se fija</text>
    <text style="font-size: 10px; font-family: 'DejaVu Sans'; fill: #2563eb" transform="translate(373.621719 212.724)">externamente</text>
   </g>
   <g id="text_10">
    <text style="font-size: 12px; font-family: 'DejaVu Sans'; text-anchor: middle; fill: #172554" x="342" y="365.184" transform="rotate(-0 342 365.184)">En este grafo, fijar las ventas no cambia el calor ni causa más natación.</text>
   </g>
  </g>
  <g id="text_11">
   <text style="font-weight: 700; font-size: 20px; font-family: 'DejaVu Sans'; text-anchor: middle; fill: #172554" x="331.2" y="22.396875" transform="rotate(-0 331.2 22.396875)">Observar X e intervenir sobre X no son lo mismo</text>
  </g>
  <g id="text_12">
   <text style="font-size: 11px; font-family: 'DejaVu Sans'; text-anchor: middle; fill: #64748b" x="331.2" y="41.76" transform="rotate(-0 331.2 41.76)">Ejemplo: calor, venta de helados y personas nadando.</text>
  </g>
 </g>
 <defs>
  <clipPath id="p8e04faa1ae">
   <rect x="7.2" y="54.72" width="669.6" height="332.64"/>
  </clipPath>
 </defs>
</svg>
