<?xml version="1.0" encoding="utf-8" standalone="no"?>
<!DOCTYPE svg PUBLIC "-//W3C//DTD SVG 1.1//EN"
  "http://www.w3.org/Graphics/SVG/1.1/DTD/svg11.dtd">
<svg xmlns:xlink="http://www.w3.org/1999/xlink" width="864pt" height="432pt" viewBox="0 0 864 432" xmlns="http://www.w3.org/2000/svg" version="1.1">
 <metadata>
  <rdf:RDF xmlns:dc="http://purl.org/dc/elements/1.1/" xmlns:cc="http://creativecommons.org/ns#" xmlns:rdf="http://www.w3.org/1999/02/22-rdf-syntax-ns#">
   <cc:Work>
    <dc:type rdf:resource="http://purl.org/dc/dcmitype/StillImage"/>
    <dc:date>2026-09-24T19:04:43.715353</dc:date>
    <dc:format>image/svg+xml</dc:format>
    <dc:creator>
     <cc:Agent>
      <dc:title>Matplotlib v3.11.2, https://matplotlib.org/</dc:title>
     </cc:Agent>
    </dc:creator>
   </cc:Work>
  </rdf:RDF>
 </metadata>
 <defs>
  <style type="text/css">*{stroke-linejoin: round; stroke-linecap: butt}</style>
 </defs>
 <g id="figure_1">
  <g id="patch_1">
   <path d="M 0 432 
L 864 432 
L 864 0 
L 0 0 
z
" style="fill: #ffffff"/>
  </g>
  <g id="axes_1">
   <g id="patch_2">
    <path d="M 171.0144 157.1472 
L 348.5376 157.1472 
Q 355.1616 157.1472 355.1616 151.8192 
L 355.1616 102.2688 
Q 355.1616 96.9408 348.5376 96.9408 
L 171.0144 96.9408 
Q 164.3904 96.9408 164.3904 102.2688 
L 164.3904 151.8192 
Q 164.3904 157.1472 171.0144 157.1472 
z
" clip-path="url(#pe4a67caaa9)" style="fill: #f1f6fb; stroke: #2466a2; stroke-width: 1.6; stroke-linejoin: miter"/>
   </g>
   <g id="patch_3">
    <path d="M 382.9824 157.1472 
L 560.5056 157.1472 
Q 567.1296 157.1472 567.1296 151.8192 
L 567.1296 102.2688 
Q 567.1296 96.9408 560.5056 96.9408 
L 382.9824 96.9408 
Q 376.3584 96.9408 376.3584 102.2688 
L 376.3584 151.8192 
Q 376.3584 157.1472 382.9824 157.1472 
z
" clip-path="url(#pe4a67caaa9)" style="fill: #dcefe4; stroke: #25805d; stroke-width: 1.6; stroke-linejoin: miter"/>
   </g>
   <g id="patch_4">
    <path d="M 594.9504 157.1472 
L 772.4736 157.1472 
Q 779.0976 157.1472 779.0976 151.8192 
L 779.0976 102.2688 
Q 779.0976 96.9408 772.4736 96.9408 
L 594.9504 96.9408 
Q 588.3264 96.9408 588.3264 102.2688 
L 588.3264 151.8192 
Q 588.3264 157.1472 594.9504 157.1472 
z
" clip-path="url(#pe4a67caaa9)" style="fill: #f1f6fb; stroke: #2466a2; stroke-width: 1.6; stroke-linejoin: miter"/>
   </g>
   <g id="patch_5">
    <path d="M 171.0144 245.0592 
L 348.5376 245.0592 
Q 355.1616 245.0592 355.1616 239.7312 
L 355.1616 190.1808 
Q 355.1616 184.8528 348.5376 184.8528 
L 171.0144 184.8528 
Q 164.3904 184.8528 164.3904 190.1808 
L 164.3904 239.7312 
Q 164.3904 245.0592 171.0144 245.0592 
z
" clip-path="url(#pe4a67caaa9)" style="fill: #f1f6fb; stroke: #ba4545; stroke-width: 1.6; stroke-linejoin: miter"/>
   </g>
   <g id="patch_6">
    <path d="M 382.9824 245.0592 
L 560.5056 245.0592 
Q 567.1296 245.0592 567.1296 239.7312 
L 567.1296 190.1808 
Q 567.1296 184.8528 560.5056 184.8528 
L 382.9824 184.8528 
Q 376.3584 184.8528 376.3584 190.1808 
L 376.3584 239.7312 
Q 376.3584 245.0592 382.9824 245.0592 
z
" clip-path="url(#pe4a67caaa9)" style="fill: #f1f6fb; stroke: #ba4545; stroke-width: 1.6; stroke-linejoin: miter"/>
   </g>
   <g id="patch_7">
    <path d="M 594.9504 245.0592 
L 772.4736 245.0592 
Q 779.0976 245.0592 779.0976 239.7312 
L 779.0976 190.1808 
Q 779.0976 184.8528 772.4736 184.8528 
L 594.9504 184.8528 
Q 588.3264 184.8528 588.3264 190.1808 
L 588.3264 239.7312 
Q 588.3264 245.0592 594.9504 245.0592 
z
" clip-path="url(#pe4a67caaa9)" style="fill: #dcefe4; stroke: #25805d; stroke-width: 1.6; stroke-linejoin: miter"/>
   </g>
   <g id="patch_8">
    <path d="M 171.0144 383.5872 
L 772.4736 383.5872 
Q 779.0976 383.5872 779.0976 378.2592 
L 779.0976 315.3888 
Q 779.0976 310.0608 772.4736 310.0608 
L 171.0144 310.0608 
Q 164.3904 310.0608 164.3904 315.3888 
L 164.3904 378.2592 
Q 164.3904 383.5872 171.0144 383.5872 
z
" clip-path="url(#pe4a67caaa9)" style="fill: #eef7f2; stroke: #25805d; stroke-width: 1.6; stroke-linejoin: miter"/>
   </g>
   <g id="text_1">
    <text style="font-weight: 700; font-size: 12px; font-family: 'DejaVu Sans'; text-anchor: start" x="54.432" y="115.056" transform="rotate(-0 54.432 115.056)">Antes</text>
   </g>
   <g id="text_2">
    <text style="font-weight: 700; font-size: 12px; font-family: 'DejaVu Sans'; text-anchor: start" x="54.432" y="202.968" transform="rotate(-0 54.432 202.968)">Después</text>
   </g>
   <g id="text_3">
    <text style="font-size: 12px; font-family: 'DejaVu Sans'; fill: #19334b" transform="translate(239.196937 122.81775)">doc-01</text>
    <text style="font-size: 12px; font-family: 'DejaVu Sans'; fill: #19334b" transform="translate(222.495375 140.45775)">Introducción</text>
   </g>
   <g id="text_4">
    <text style="font-size: 12px; font-family: 'DejaVu Sans'; fill: #19334b" transform="translate(451.164937 122.81775)">doc-02</text>
    <text style="font-size: 12px; font-family: 'DejaVu Sans'; fill: #19334b" transform="translate(438.251812 140.45775)">60 créditos</text>
   </g>
   <g id="text_5">
    <text style="font-size: 12px; font-family: 'DejaVu Sans'; fill: #19334b" transform="translate(663.132937 122.81775)">doc-03</text>
    <text style="font-size: 12px; font-family: 'DejaVu Sans'; fill: #19334b" transform="translate(658.105125 140.45775)">Trámites</text>
   </g>
   <g id="text_6">
    <text style="font-size: 12px; font-family: 'DejaVu Sans'; fill: #19334b" transform="translate(239.196937 210.72975)">doc-01</text>
    <text style="font-size: 12px; font-family: 'DejaVu Sans'; fill: #19334b" transform="translate(216.484125 228.36975)">Introducción A</text>
   </g>
   <g id="text_7">
    <text style="font-size: 12px; font-family: 'DejaVu Sans'; fill: #19334b" transform="translate(451.164937 210.72975)">doc-02</text>
    <text style="font-size: 12px; font-family: 'DejaVu Sans'; fill: #19334b" transform="translate(428.439937 228.36975)">Introducción B</text>
   </g>
   <g id="text_8">
    <text style="font-size: 12px; font-family: 'DejaVu Sans'; fill: #19334b" transform="translate(663.132937 210.72975)">doc-03</text>
    <text style="font-size: 12px; font-family: 'DejaVu Sans'; fill: #19334b" transform="translate(650.219812 228.36975)">60 créditos</text>
   </g>
   <g id="patch_9">
    <path d="M 471.744 160.014902 
Q 471.744 170.999081 471.744 179.747192 
" style="fill: none; stroke: #ba4545; stroke-width: 2; stroke-linecap: round"/>
    <path d="M 474.144 174.947192 
L 471.744 179.747192 
L 469.344 174.947192 
" style="fill: none; stroke: #ba4545; stroke-width: 2; stroke-linecap: round"/>
   </g>
   <g id="text_9">
    <text style="font-size: 12px; font-family: 'DejaVu Sans'; fill: #19334b" transform="translate(306.145875 341.67525)">Ancla: documento fuente + «Se requieren 60 créditos»</text>
    <text style="font-size: 12px; font-family: 'DejaVu Sans'; fill: #19334b" transform="translate(256.88775 358.83525)">Revisar que la frase siga existiendo y quepa completa en un fragmento</text>
   </g>
   <g id="patch_10">
    <path d="M 683.712 247.929179 
Q 683.712 277.560129 683.712 304.955011 
" style="fill: none; stroke: #25805d; stroke-width: 2; stroke-linecap: round"/>
    <path d="M 686.112 300.155011 
L 683.712 304.955011 
L 681.312 300.155011 
" style="fill: none; stroke: #25805d; stroke-width: 2; stroke-linecap: round"/>
   </g>
  </g>
  <g id="text_10">
   <text style="font-weight: 700; font-size: 20px; font-family: 'DejaVu Sans'; text-anchor: start; fill: #19334b" x="43.2" y="28.956875" transform="rotate(-0 43.2 28.956875)">La evidencia debe sobrevivir al cambio de fragmentación</text>
  </g>
  <g id="text_11">
   <text style="font-size: 11px; font-family: 'DejaVu Sans'; text-anchor: start; fill: #536577" x="43.2" y="51.84" transform="rotate(-0 43.2 51.84)">Ejemplo esquemático · El mismo identificador puede acabar señalando otro texto</text>
  </g>
 </g>
 <defs>
  <clipPath id="pe4a67caaa9">
   <rect x="34.56" y="77.76" width="794.88" height="319.68"/>
  </clipPath>
 </defs>
</svg>
