<?xml version="1.0" encoding="utf-8" standalone="no"?>
<!DOCTYPE svg PUBLIC "-//W3C//DTD SVG 1.1//EN"
  "http://www.w3.org/Graphics/SVG/1.1/DTD/svg11.dtd">
<svg xmlns:xlink="http://www.w3.org/1999/xlink" width="864pt" height="432pt" viewBox="0 0 864 432" xmlns="http://www.w3.org/2000/svg" version="1.1">
 <metadata>
  <rdf:RDF xmlns:dc="http://purl.org/dc/elements/1.1/" xmlns:cc="http://creativecommons.org/ns#" xmlns:rdf="http://www.w3.org/1999/02/22-rdf-syntax-ns#">
   <cc:Work>
    <dc:type rdf:resource="http://purl.org/dc/dcmitype/StillImage"/>
    <dc:date>2026-09-24T19:04:44.220776</dc:date>
    <dc:format>image/svg+xml</dc:format>
    <dc:creator>
     <cc:Agent>
      <dc:title>Matplotlib v3.11.2, https://matplotlib.org/</dc:title>
     </cc:Agent>
    </dc:creator>
   </cc:Work>
  </rdf:RDF>
 </metadata>
 <defs>
  <style type="text/css">*{stroke-linejoin: round; stroke-linecap: butt}</style>
 </defs>
 <g id="figure_1">
  <g id="patch_1">
   <path d="M 0 432 
L 864 432 
L 864 0 
L 0 0 
z
" style="fill: #ffffff"/>
  </g>
  <g id="axes_1">
   <g id="patch_2">
    <path d="M 51.7824 314.3232 
L 275.6736 314.3232 
Q 282.2976 314.3232 282.2976 308.9952 
L 282.2976 155.5488 
Q 282.2976 150.2208 275.6736 150.2208 
L 51.7824 150.2208 
Q 45.1584 150.2208 45.1584 155.5488 
L 45.1584 308.9952 
Q 45.1584 314.3232 51.7824 314.3232 
z
" clip-path="url(#p4a5d44ad6d)" style="fill: #f1f6fb; stroke: #2466a2; stroke-width: 1.6; stroke-linejoin: miter"/>
   </g>
   <g id="patch_3">
    <path d="M 343.2384 213.0912 
L 553.8816 213.0912 
Q 560.5056 213.0912 560.5056 207.7632 
L 560.5056 144.8928 
Q 560.5056 139.5648 553.8816 139.5648 
L 343.2384 139.5648 
Q 336.6144 139.5648 336.6144 144.8928 
L 336.6144 207.7632 
Q 336.6144 213.0912 343.2384 213.0912 
z
" clip-path="url(#p4a5d44ad6d)" style="fill: #eef7f2; stroke: #25805d; stroke-width: 1.6; stroke-linejoin: miter"/>
   </g>
   <g id="patch_4">
    <path d="M 343.2384 335.6352 
L 553.8816 335.6352 
Q 560.5056 335.6352 560.5056 330.3072 
L 560.5056 267.4368 
Q 560.5056 262.1088 553.8816 262.1088 
L 343.2384 262.1088 
Q 336.6144 262.1088 336.6144 267.4368 
L 336.6144 330.3072 
Q 336.6144 335.6352 343.2384 335.6352 
z
" clip-path="url(#p4a5d44ad6d)" style="fill: #fcf0f0; stroke: #ba4545; stroke-width: 1.6; stroke-linejoin: miter"/>
   </g>
   <g id="patch_5">
    <path d="M 621.4464 293.0112 
L 805.5936 293.0112 
Q 812.2176 293.0112 812.2176 287.6832 
L 812.2176 171.5328 
Q 812.2176 166.2048 805.5936 166.2048 
L 621.4464 166.2048 
Q 614.8224 166.2048 614.8224 171.5328 
L 614.8224 287.6832 
Q 614.8224 293.0112 621.4464 293.0112 
z
" clip-path="url(#p4a5d44ad6d)" style="fill: #fff7e9; stroke: #bf761b; stroke-width: 1.6; stroke-linejoin: miter"/>
   </g>
   <g id="text_1">
    <text style="font-size: 12px; font-family: 'DejaVu Sans'; fill: #19334b" transform="translate(130.477687 201.839813)">CONTEXTO</text>
    <text style="font-size: 12px; font-family: 'DejaVu Sans'; fill: #19334b" transform="translate(163.728 214.872)"/>
    <text style="font-size: 12px; font-family: 'DejaVu Sans'; fill: #19334b" transform="translate(88.188937 235.82325)">Se requieren 60 créditos.</text>
    <text style="font-size: 12px; font-family: 'DejaVu Sans'; fill: #19334b" transform="translate(99.888 253.22325)">El plazo se anunciará</text>
    <text style="font-size: 12px; font-family: 'DejaVu Sans'; fill: #19334b" transform="translate(115.622062 270.38325)">posteriormente.</text>
   </g>
   <g id="text_2">
    <text style="font-size: 12px; font-family: 'DejaVu Sans'; fill: #19334b" transform="translate(410.629687 172.34175)">Afirmación 1</text>
    <text style="font-size: 12px; font-family: 'DejaVu Sans'; fill: #19334b" transform="translate(376.302187 188.57925)">«Se exigen 60 créditos»</text>
   </g>
   <g id="text_3">
    <text style="font-size: 12px; font-family: 'DejaVu Sans'; fill: #19334b" transform="translate(410.629687 294.88575)">Afirmación 2</text>
    <text style="font-size: 12px; font-family: 'DejaVu Sans'; fill: #19334b" transform="translate(381.141562 310.88325)">«Hasta el 30 de junio»</text>
   </g>
   <g id="patch_6">
    <path d="M 284.134482 203.426688 
Q 309.456576 190.979717 332.77193 179.51915 
" style="fill: none; stroke: #25805d; stroke-width: 2; stroke-linecap: round"/>
    <path d="M 327.40549 179.482732 
L 332.77193 179.51915 
L 329.522932 183.790451 
" style="fill: none; stroke: #25805d; stroke-width: 2; stroke-linecap: round"/>
   </g>
   <g id="patch_7">
    <path d="M 283.974381 266.753272 
Q 309.457752 281.557018 333.007626 295.237561 
" style="fill: none; stroke: #ba4545; stroke-width: 2; stroke-linecap: round"/>
    <path d="M 330.062679 290.751216 
L 333.007626 295.237561 
L 327.651582 294.901711 
" style="fill: none; stroke: #ba4545; stroke-width: 2; stroke-linecap: round"/>
   </g>
   <g id="text_4">
    <text style="font-size: 12px; font-family: 'DejaVu Sans'; fill: #19334b" transform="translate(685.45875 207.875813)">SOPORTE</text>
    <text style="font-size: 12px; font-family: 'DejaVu Sans'; fill: #19334b" transform="translate(713.52 220.908)"/>
    <text style="font-size: 12px; font-family: 'DejaVu Sans'; fill: #19334b" transform="translate(654.0675 242.78175)">1 de 2 afirmaciones</text>
    <text style="font-size: 12px; font-family: 'DejaVu Sans'; fill: #19334b" transform="translate(668.325937 259.569563)">Fidelidad = 0,5</text>
   </g>
   <g id="patch_8">
    <path d="M 562.495307 178.193808 
Q 587.663317 188.315725 610.75675 197.603302 
" style="fill: none; stroke: #25805d; stroke-width: 2; stroke-linecap: round"/>
    <path d="M 607.198917 193.585613 
L 610.75675 197.603302 
L 605.407899 198.038955 
" style="fill: none; stroke: #25805d; stroke-width: 2; stroke-linecap: round"/>
   </g>
   <g id="patch_9">
    <path d="M 562.007725 296.089141 
Q 587.662999 278.892671 611.460864 262.941204 
" style="fill: none; stroke: #ba4545; stroke-width: 2; stroke-linecap: round"/>
    <path d="M 606.137425 263.620177 
L 611.460864 262.941204 
L 608.809979 267.607338 
" style="fill: none; stroke: #ba4545; stroke-width: 2; stroke-linecap: round"/>
   </g>
  </g>
  <g id="text_5">
   <text style="font-weight: 700; font-size: 20px; font-family: 'DejaVu Sans'; text-anchor: start; fill: #19334b" x="43.2" y="28.956875" transform="rotate(-0 43.2 28.956875)">Una cita no convierte una invención en evidencia</text>
  </g>
  <g id="text_6">
   <text style="font-size: 11px; font-family: 'DejaVu Sans'; text-anchor: start; fill: #536577" x="43.2" y="51.84" transform="rotate(-0 43.2 51.84)">Ejemplo ficticio · Evaluación de dos afirmaciones, no de la fluidez del texto</text>
  </g>
 </g>
 <defs>
  <clipPath id="p4a5d44ad6d">
   <rect x="34.56" y="77.76" width="794.88" height="319.68"/>
  </clipPath>
 </defs>
</svg>
