<svg xmlns="http://www.w3.org/2000/svg" width="1400" height="735" viewBox="0 0 1400 735"><defs><marker id="arrow" markerWidth="10" markerHeight="10" refX="8" refY="3" orient="auto" markerUnits="strokeWidth"><path d="M0,0 L8,3 L0,6 Z" fill="context-stroke"/></marker><marker id="start" markerWidth="10" markerHeight="10" refX="0" refY="3" orient="auto" markerUnits="strokeWidth"><path d="M8,0 L0,3 L8,6 Z" fill="context-stroke"/></marker></defs><rect width="1400" height="735" fill="white"/><g font-family="Arial, sans-serif"><text x="55" y="54" text-anchor="start" fill="#23364a" font-size="32">Gobernar durante el desarrollo y durante la operación</text><text x="55" y="91" text-anchor="start" fill="#566673" font-size="20">Ampliación didáctica · no ejecutar experimentos de fallos sin un alcance controlado</text><rect x="70" y="175" width="290" height="105" rx="12" fill="#eef3f6" stroke="#23364a" stroke-width="2.5"/><text x="215.0" y="235.5" text-anchor="middle" fill="#23364a" font-size="24">Cambio de código</text><rect x="535" y="175" width="330" height="105" rx="12" fill="#eef3f6" stroke="#23364a" stroke-width="2.5"/><text x="700.0" y="221.0" text-anchor="middle" fill="#23364a" font-size="24">Verificación automática</text><text x="700.0" y="250.0" text-anchor="middle" fill="#23364a" font-size="24">Ciclos, capas, CC</text><rect x="1040" y="175" width="290" height="105" rx="12" fill="#eef3f6" stroke="#23364a" stroke-width="2.5"/><text x="1185.0" y="221.0" text-anchor="middle" fill="#23364a" font-size="24">Resultado</text><text x="1185.0" y="250.0" text-anchor="middle" fill="#23364a" font-size="24">Pasa / falla</text><path d="M360,228 L535,228" fill="none" stroke="#23364a" stroke-width="3" marker-end="url(#arrow)"/><path d="M865,228 L1040,228" fill="none" stroke="#23364a" stroke-width="3" marker-end="url(#arrow)"/><rect x="1040" y="455" width="290" height="110" rx="12" fill="#eef3f6" stroke="#23364a" stroke-width="2.5"/><text x="1185.0" y="503.5" text-anchor="middle" fill="#23364a" font-size="24">Observación real</text><text x="1185.0" y="532.5" text-anchor="middle" fill="#23364a" font-size="24">Latencia y errores</text><rect x="535" y="455" width="330" height="110" rx="12" fill="#eef3f6" stroke="#23364a" stroke-width="2.5"/><text x="700.0" y="503.5" text-anchor="middle" fill="#23364a" font-size="24">Experimento de fallo</text><text x="700.0" y="532.5" text-anchor="middle" fill="#23364a" font-size="24">Hipótesis + alcance</text><rect x="70" y="455" width="290" height="110" rx="12" fill="#eef3f6" stroke="#23364a" stroke-width="2.5"/><text x="215.0" y="503.5" text-anchor="middle" fill="#23364a" font-size="24">Aprendizaje</text><text x="215.0" y="532.5" text-anchor="middle" fill="#23364a" font-size="24">Ajustar diseño o regla</text><path d="M1185,280 L1185,455" fill="none" stroke="#23364a" stroke-width="3" marker-end="url(#arrow)"/><path d="M1040,510 L865,510" fill="none" stroke="#23364a" stroke-width="3" marker-end="url(#arrow)"/><path d="M535,510 L360,510" fill="none" stroke="#23364a" stroke-width="3" marker-end="url(#arrow)"/><path d="M215,455 L215,280" fill="none" stroke="#2f6780" stroke-width="3" marker-end="url(#arrow)"/><text x="700" y="660" text-anchor="middle" fill="#23364a" font-size="25">La automatización recuerda principios; el equipo interpreta evidencia y decide cambios.</text><text x="55" y="710" text-anchor="start" fill="#566673" font-size="18">Capítulo 6 · Recreación didáctica propia a partir del PDF proporcionado</text></g></svg>