<svg xmlns="http://www.w3.org/2000/svg" width="1400" height="795" viewBox="0 0 1400 795"><defs><marker id="arrow" markerWidth="10" markerHeight="10" refX="8" refY="3" orient="auto" markerUnits="strokeWidth"><path d="M0,0 L8,3 L0,6 Z" fill="context-stroke"/></marker><marker id="start" markerWidth="10" markerHeight="10" refX="0" refY="3" orient="auto" markerUnits="strokeWidth"><path d="M8,0 L0,3 L8,6 Z" fill="context-stroke"/></marker></defs><rect width="1400" height="795" fill="white"/><g font-family="Arial, sans-serif"><text x="55" y="54" text-anchor="start" fill="#23364a" font-size="32">Figura 6-3 · Dependencias cíclicas entre componentes</text><text x="55" y="91" text-anchor="start" fill="#566673" font-size="20">Recreación de la topología triangular del libro · A → B significa «A depende de B»</text><rect x="480" y="165" width="290" height="85" rx="12" fill="#eef3f6" stroke="#23364a" stroke-width="2.5"/><text x="625.0" y="215.5" text-anchor="middle" fill="#23364a" font-size="24">Componente A</text><rect x="165" y="435" width="290" height="85" rx="12" fill="#eef3f6" stroke="#23364a" stroke-width="2.5"/><text x="310.0" y="485.5" text-anchor="middle" fill="#23364a" font-size="24">Componente B</text><rect x="815" y="435" width="290" height="85" rx="12" fill="#eef3f6" stroke="#23364a" stroke-width="2.5"/><text x="960.0" y="485.5" text-anchor="middle" fill="#23364a" font-size="24">Componente C</text><path d="M505,250 L380,435" fill="none" stroke="#23364a" stroke-width="3" marker-end="url(#arrow)" marker-start="url(#start)"/><path d="M745,250 L890,435" fill="none" stroke="#23364a" stroke-width="3" marker-end="url(#arrow)" marker-start="url(#start)"/><path d="M455,478 L815,478" fill="none" stroke="#23364a" stroke-width="3" marker-end="url(#arrow)" marker-start="url(#start)"/><text x="265" y="342" text-anchor="middle" fill="#23364a" font-size="25">A ↔ B</text><text x="1010" y="342" text-anchor="middle" fill="#23364a" font-size="25">A ↔ C</text><text x="635" y="457" text-anchor="middle" fill="#23364a" font-size="25">B ↔ C</text><rect x="80" y="615" width="340" height="85" rx="12" fill="#fbeeea" stroke="#23364a" stroke-width="2.5"/><text x="250.0" y="651.0" text-anchor="middle" fill="#23364a" font-size="24">Detectar ciclo</text><text x="250.0" y="680.0" text-anchor="middle" fill="#23364a" font-size="24">A → B → A</text><rect x="525" y="615" width="350" height="85" rx="12" fill="#eef3f6" stroke="#23364a" stroke-width="2.5"/><text x="700.0" y="651.0" text-anchor="middle" fill="#23364a" font-size="24">Consecuencia</text><text x="700.0" y="680.0" text-anchor="middle" fill="#23364a" font-size="24">Reutilización conjunta</text><rect x="980" y="615" width="340" height="85" rx="12" fill="#eef3f6" stroke="#23364a" stroke-width="2.5"/><text x="1150.0" y="651.0" text-anchor="middle" fill="#23364a" font-size="24">Gobierno</text><text x="1150.0" y="680.0" text-anchor="middle" fill="#23364a" font-size="24">Fallar la integración</text><path d="M420,657 L525,657" fill="none" stroke="#23364a" stroke-width="3" marker-end="url(#arrow)"/><path d="M875,657 L980,657" fill="none" stroke="#23364a" stroke-width="3" marker-end="url(#arrow)"/><text x="55" y="770" text-anchor="start" fill="#566673" font-size="18">Capítulo 6 · Recreación didáctica propia a partir del PDF proporcionado</text></g></svg>