<?xml version="1.0" encoding="UTF-8"?>
<svg xmlns="http://www.w3.org/2000/svg" width="1200" height="700" viewBox="0 0 1200 700">
  <defs>
    <marker id="arrow" viewBox="0 0 10 10" refX="9" refY="5" markerWidth="8" markerHeight="8" orient="auto-start-reverse"><path d="M 0 0 L 10 5 L 0 10 z" fill="#56627A"/></marker>
    <filter id="shadow" x="-20%" y="-20%" width="140%" height="140%"><feDropShadow dx="0" dy="4" stdDeviation="5" flood-opacity="0.12"/></filter>
  </defs>
  <rect width="1200" height="700" rx="26" fill="#F7F9FC"/>
  <text x="60" y="68" font-family="Helvetica,Arial,sans-serif" font-size="30" font-weight="700" fill="#172033">FAR, FRR y el umbral biométrico</text>
  <text x="60" y="100" font-family="Helvetica,Arial,sans-serif" font-size="17" fill="#56627A">Mover el umbral intercambia seguridad y comodidad; no existe un valor universal</text>
  
  <line x1="130" y1="545" x2="1080" y2="545" stroke="#172033" stroke-width="3" marker-end="url(#arrow)"/>
  <line x1="130" y1="545" x2="130" y2="160" stroke="#172033" stroke-width="3" marker-end="url(#arrow)"/>
  <path d="M155 500 C380 470, 600 340, 1040 180" fill="none" stroke="#E25555" stroke-width="7"/>
  <path d="M155 180 C400 250, 660 410, 1040 510" fill="none" stroke="#2F6BFF" stroke-width="7"/>
  <circle cx="600" cy="355" r="13" fill="#2AA876"/><line x1="600" y1="355" x2="600" y2="545" stroke="#2AA876" stroke-width="4" stroke-dasharray="8 7"/>
  <text x="900" y="230" font-family="Helvetica,Arial,sans-serif" font-size="20" font-weight="700" fill="#E25555">FAR: impostores aceptados</text>
  <text x="820" y="490" font-family="Helvetica,Arial,sans-serif" font-size="20" font-weight="700" fill="#2F6BFF">FRR: legítimos rechazados</text>
  <text x="620" y="340" font-family="Helvetica,Arial,sans-serif" font-size="17" font-weight="700" fill="#2AA876">EER aproximado</text>
  <text x="600" y="590" text-anchor="middle" font-family="Helvetica,Arial,sans-serif" font-size="17" fill="#56627A">umbral de rechazo →</text>
  <rect x="60" y="625" width="1080" height="42" rx="14" fill="#172033"/><text x="600" y="652" text-anchor="middle" font-family="Helvetica,Arial,sans-serif" font-size="17" font-weight="700" fill="white">El EER compara sistemas; producción elige umbral según el costo de cada error</text>

</svg>